<?xml version="1.0" encoding="UTF-8"?>
<svg id="Ebene_1" xmlns="http://www.w3.org/2000/svg" version="1.1" viewBox="0 0 240.94 141.73">
  <!-- Generator: Adobe Illustrator 30.0.0, SVG Export Plug-In . SVG Version: 2.1.1 Build 123)  -->
  <defs>
    <style>
      .st0 {
        fill: #ac8495;
      }

      .st1 {
        fill: #e4032e;
      }

      .st2 {
        fill: #6b1510;
      }
    </style>
  </defs>
  <g>
    <rect class="st0" x="34.07" y="27.86" width="1" height="51.97"/>
    <rect class="st0" x="28.25" y="27.86" width="4.01" height="51.97"/>
    <g>
      <path class="st0" d="M43.22,49.66c2,0,3.62-1.62,3.62-3.62s-1.62-3.62-3.62-3.62-3.62,1.62-3.62,3.62,1.62,3.62,3.62,3.62"/>
      <path class="st0" d="M43.22,65.27c2,0,3.62-1.62,3.62-3.62s-1.62-3.62-3.62-3.62-3.62,1.62-3.62,3.62,1.62,3.62,3.62,3.62"/>
    </g>
  </g>
  <path class="st1" d="M54.43,43.23h-3.12v6.24h3.12v15.39h7.07v-15.39h5.2v-6.24h-5.2v-1.08c0-.91.24-1.59.73-2.04.49-.44,1.14-.67,1.98-.67.42,0,.8.03,1.16.1.36.06.69.13,1,.21.33.1.65.19.96.27l.83-5.77c-.47-.19-1-.36-1.58-.5-.5-.14-1.09-.26-1.77-.38-.68-.11-1.44-.17-2.27-.17-1.14,0-2.2.2-3.2.61-1,.4-1.86.98-2.58,1.71-.72.73-1.29,1.62-1.71,2.65-.42,1.03-.62,2.19-.62,3.48v1.57ZM89.36,58.62h-9.99v-.42c.28-.16.57-.36.87-.58.25-.19.54-.42.87-.67.33-.25.65-.53.96-.83l6.87-7.07v-6.24h-18.31v6.24h8.95v.42c-.28.17-.57.36-.87.58-.28.2-.58.42-.89.67-.32.25-.63.53-.94.83l-6.87,7.07v6.24h19.35v-6.24ZM114.91,64.86v-10.84c0-.86.1-1.6.29-2.23.19-.63.44-1.15.73-1.57.29-.41.62-.72,1-.92.37-.2.74-.3,1.1-.3,1.52,0,2.29.87,2.29,2.61v13.25h7.07v-13.99c0-1.27-.19-2.41-.56-3.41-.37-1-.88-1.85-1.52-2.55-.64-.7-1.41-1.24-2.31-1.6-.9-.36-1.87-.55-2.89-.55-1.22,0-2.23.17-3.02.49-.79.33-1.42.69-1.89,1.09-.56.47-1,1-1.33,1.58h-.42c-.31-.58-.71-1.11-1.21-1.58-.44-.4-1.03-.76-1.77-1.09-.74-.33-1.68-.49-2.85-.49s-2.13.17-2.89.49c-.76.33-1.38.69-1.85,1.09-.56.47-.99,1-1.29,1.58h-.42c-.11-.58-.36-1.11-.75-1.58-.33-.4-.82-.76-1.46-1.09-.64-.33-1.5-.49-2.58-.49-.47,0-.92.03-1.33.09-.42.06-.79.12-1.12.2-.39.09-.75.18-1.08.25v5.71h.62c1.25,0,1.87.6,1.87,1.81v14.05h7.07v-10.84c0-.86.1-1.6.29-2.23.19-.63.44-1.15.73-1.57.29-.41.62-.72,1-.92.37-.2.74-.3,1.1-.3,1.52,0,2.29.87,2.29,2.61v13.25h7.07Z"/>
  <g>
    <path class="st1" d="M204.89,116.61h2.1v-4.54l3.89,4.54h2.94l-4.62-5.12,4.25-4.44h-2.75l-3.71,3.97v-3.97h-2.1v9.55ZM199.52,116.61h2.1v-9.55h-2.1v9.55ZM196.71,107.81c-.81-.71-1.85-1-2.93-1-1.88,0-3.64,1.07-3.64,3.1,0,3.19,4.48,2.24,4.48,4,0,.68-.77,1-1.46,1s-1.4-.34-1.84-.9l-1.5,1.65c.9.84,1.98,1.2,3.21,1.2,1.97,0,3.69-1.01,3.69-3.14,0-3.35-4.4-2.23-4.4-3.97,0-.71.83-.98,1.42-.98.51,0,1.19.2,1.53.63l1.44-1.58ZM187.41,107.05h-2.11v5.79c0,1.17-.81,2.06-1.92,2.06s-1.93-.89-1.93-2.06v-5.79h-2.11v5.87c0,2.25,1.38,3.93,4.04,3.93s4.02-1.67,4.02-3.93v-5.87ZM165.31,116.61h2.1v-7.33h.03l2.42,7.33h1.61l2.51-7.33h.03v7.33h2.11v-9.55h-3.17l-2.21,6.23h-.03l-2.2-6.23h-3.19v9.55Z"/>
    <path class="st2" d="M151.24,116.61h2.1v-7.33h.03l2.42,7.33h1.61l2.51-7.33h.03v7.33h2.1v-9.55h-3.17l-2.21,6.23h-.03l-2.2-6.23h-3.19v9.55ZM148.01,107.05h-2.1v5.79c0,1.17-.81,2.06-1.92,2.06s-1.93-.89-1.93-2.06v-5.79h-2.11v5.87c0,2.25,1.38,3.93,4.04,3.93s4.02-1.67,4.02-3.93v-5.87ZM132.09,108.83h1.38c.77,0,1.63.15,1.63,1.11,0,1.04-1,1.07-1.77,1.07h-1.24v-2.18ZM129.98,116.61h2.11v-3.82h1.04l2,3.82h2.52l-2.43-4.04c1.35-.24,2.06-1.28,2.06-2.62,0-2.23-1.64-2.9-3.6-2.9h-3.7v9.55ZM122.82,116.61h2.11v-7.7h2.73v-1.86h-7.56v1.86h2.73v7.7ZM108.7,116.61h2.11v-6.8h.03l4.17,6.8h2.75v-9.55h-2.11v6.64h-.03l-4.06-6.64h-2.86v9.55ZM98.98,116.61h6.73v-1.94h-4.63v-1.96h4.14v-1.94h-4.14v-1.77h4.39v-1.94h-6.49v9.55ZM88.62,116.61h7.56v-1.94h-4.91l4.75-5.75v-1.86h-7.22v1.86h4.67l-4.85,5.75v1.94ZM80.8,108.19h1.7c1.03,0,2.05.24,2.05,1.54s-1.03,1.54-2.05,1.54h-1.7v-3.08ZM79.51,116.61h1.29v-4.21h1.45l2.43,4.21h1.62l-2.71-4.36c1.44-.16,2.35-1.31,2.35-2.52s-.62-2.67-3.06-2.67h-3.36v9.55ZM68.57,116.61h1.29v-4.37h4.96v4.37h1.29v-9.55h-1.29v3.97h-4.96v-3.97h-1.29v9.55ZM59.47,116.61h6.41v-1.21h-5.12v-3.07h4.54v-1.21h-4.54v-2.85h4.87v-1.21h-6.17v9.55ZM51.5,116.61h5.68v-1.21h-4.39v-8.34h-1.29v9.55Z"/>
    <path class="st2" d="M185.21,92.27h1.95c3.11,0,3.74,2.35,3.74,3.56,0,2.36-1.86,3.56-4.05,3.56h-1.63v-7.13ZM183.91,100.61h3.12c3.42,0,5.24-2.33,5.24-4.78,0-1.77-.98-4.78-5.02-4.78h-3.33v9.55ZM172.34,100.61h1.29v-7.86h.03l5.32,7.86h1.64v-9.55h-1.29v7.86h-.03l-5.27-7.86h-1.7v9.55ZM161.67,91.05v6.06c0,2.21,1.61,3.74,3.7,3.74s3.7-1.53,3.7-3.74v-6.06h-1.29v5.86c0,1.19-.59,2.73-2.4,2.73s-2.4-1.54-2.4-2.73v-5.86h-1.29ZM156.39,96.78h-3.32v1.13h3.32v-1.13ZM144.12,99.53c.65.9,1.82,1.32,3.05,1.32,1.84,0,3.32-1.11,3.32-2.95,0-3.45-4.71-2-4.71-4.42,0-.59.43-1.46,1.86-1.46.74,0,1.38.34,1.7.84l1.05-.96c-.71-.88-1.71-1.09-2.75-1.09-2.29,0-3.24,1.55-3.24,2.67,0,3.73,4.71,2.36,4.71,4.56,0,1.05-1.05,1.59-1.9,1.59-.77,0-1.57-.32-2.03-1.03l-1.07.92ZM138.28,95.27v1.21h2.12v2.66c-.58.32-1.45.5-2.35.5-2.11,0-3.71-1.65-3.71-3.81s1.42-3.81,3.6-3.81c.96,0,1.87.26,2.65,1.01l.92-.99c-.74-.77-1.81-1.24-3.56-1.24-2.92,0-4.98,2.19-4.98,5.02s1.87,5.02,5.12,5.02c1.16,0,2.69-.31,3.62-.88v-4.71h-3.41ZM121.85,100.61h1.29v-7.86h.03l5.32,7.86h1.65v-9.55h-1.29v7.86h-.03l-5.27-7.86h-1.7v9.55ZM111.18,91.05v6.06c0,2.21,1.61,3.74,3.7,3.74s3.7-1.53,3.7-3.74v-6.06h-1.29v5.86c0,1.19-.59,2.73-2.4,2.73s-2.4-1.54-2.4-2.73v-5.86h-1.29ZM100.35,100.61h1.29v-4.37h4.95v4.37h1.29v-9.55h-1.29v3.97h-4.95v-3.97h-1.29v9.55ZM97.73,92.29c-.77-1.01-2.09-1.48-3.35-1.48-2.94,0-4.98,2.13-4.98,5.1,0,2.4,1.87,4.94,4.91,4.94,2.19,0,3.33-1.28,3.62-1.67l-1.09-.82c-.57.8-1.4,1.28-2.5,1.28-2.23,0-3.56-1.71-3.56-3.73,0-2.17,1.42-3.89,3.56-3.89.88,0,1.77.39,2.31,1.09l1.08-.82ZM80.84,99.53c.65.9,1.82,1.32,3.05,1.32,1.84,0,3.32-1.11,3.32-2.95,0-3.45-4.71-2-4.71-4.42,0-.59.43-1.46,1.86-1.46.74,0,1.38.34,1.7.84l1.05-.96c-.71-.88-1.71-1.09-2.75-1.09-2.3,0-3.24,1.55-3.24,2.67,0,3.73,4.71,2.36,4.71,4.56,0,1.05-1.05,1.59-1.9,1.59-.77,0-1.57-.32-2.02-1.03l-1.07.92ZM73.63,92.19h1.7c1.03,0,2.05.24,2.05,1.54s-1.03,1.54-2.05,1.54h-1.7v-3.08ZM72.34,100.61h1.29v-4.21h1.44l2.43,4.21h1.62l-2.71-4.36c1.44-.16,2.35-1.31,2.35-2.52s-.62-2.67-3.06-2.67h-3.36v9.55ZM64.52,99.64c-2.19,0-3.61-1.71-3.61-3.81s1.42-3.81,3.61-3.81,3.61,1.71,3.61,3.81-1.42,3.81-3.61,3.81M64.52,100.85c2.92,0,4.98-2.19,4.98-5.02s-2.06-5.02-4.98-5.02-4.98,2.19-4.98,5.02,2.06,5.02,4.98,5.02M51.5,100.61h1.29v-4.13h4.39v-1.21h-4.39v-3h4.71v-1.21h-6.01v9.55Z"/>
    <path class="st2" d="M140.68,76.83h1.38c.77,0,1.63.15,1.63,1.11,0,1.04-1,1.07-1.77,1.07h-1.24v-2.18ZM138.58,84.61h2.1v-3.82h1.04l2,3.82h2.52l-2.43-4.04c1.35-.24,2.06-1.28,2.06-2.62,0-2.23-1.65-2.9-3.6-2.9h-3.7v9.55ZM128.86,84.61h6.73v-1.94h-4.63v-1.96h4.14v-1.94h-4.14v-1.77h4.39v-1.94h-6.49v9.55ZM125.65,78.94h-3.74v1.94h1.71v1.55c-.39.22-1.07.47-1.98.47-1.8,0-2.97-1.3-2.97-3.08s1.18-3.08,2.97-3.08c1.07,0,1.76.31,2.32.9l1.48-1.62c-.96-.89-2.29-1.23-3.8-1.23-2.98,0-5.16,1.96-5.16,5.02s2.17,5.02,5.16,5.02c1.4,0,2.77-.27,4.01-.92v-4.99ZM109.09,76.83h1.38c.77,0,1.63.15,1.63,1.11,0,1.04-1,1.07-1.77,1.07h-1.24v-2.18ZM106.99,84.61h2.11v-3.82h1.04l2,3.82h2.52l-2.43-4.04c1.35-.24,2.06-1.28,2.06-2.62,0-2.23-1.65-2.9-3.61-2.9h-3.7v9.55ZM103.75,75.05h-2.1v5.79c0,1.17-.81,2.06-1.92,2.06s-1.93-.89-1.93-2.06v-5.79h-2.1v5.87c0,2.25,1.37,3.93,4.04,3.93s4.02-1.67,4.02-3.93v-5.87ZM87.74,80.65h1.59c.69,0,1.7.15,1.7,1.05,0,.84-.74,1.12-1.41,1.12h-1.89v-2.18ZM87.74,76.83h1.43c.66,0,1.42.2,1.42,1s-.68,1.04-1.32,1.04h-1.53v-2.04ZM85.64,84.61h3.91c1.7,0,3.59-.66,3.59-2.66,0-1.24-.84-2.17-2.09-2.34v-.03c.98-.31,1.64-1.04,1.64-2.11,0-2.08-1.82-2.43-3.5-2.43h-3.56v9.55ZM80.31,84.61h2.1v-9.55h-2.1v9.55ZM70.59,84.61h6.73v-1.94h-4.63v-1.96h4.14v-1.94h-4.14v-1.77h4.39v-1.94h-6.49v9.55ZM62.55,76.83h1.38c.77,0,1.63.15,1.63,1.11,0,1.04-1,1.07-1.77,1.07h-1.24v-2.18ZM60.44,84.61h2.1v-3.82h1.04l2,3.82h2.52l-2.43-4.04c1.35-.24,2.06-1.28,2.06-2.62,0-2.23-1.65-2.9-3.6-2.9h-3.7v9.55ZM51.32,84.61h2.1v-3.72h3.98v-1.94h-3.98v-1.95h4.31v-1.94h-6.41v9.55Z"/>
  </g>
</svg>